<?xml version="1.0" encoding="UTF-8" standalone="no"?>
<!-- Created with Inkscape (http://www.inkscape.org/) -->

<svg
   width="50mm"
   height="50mm"
   viewBox="0 0 50 50"
   version="1.1"
   id="svg1"
   xml:space="preserve"
   inkscape:version="1.4.2 (f4327f4, 2025-05-13)"
   sodipodi:docname="llave.svg"
   xmlns:inkscape="http://www.inkscape.org/namespaces/inkscape"
   xmlns:sodipodi="http://sodipodi.sourceforge.net/DTD/sodipodi-0.dtd"
   xmlns="http://www.w3.org/2000/svg"
   xmlns:svg="http://www.w3.org/2000/svg"><sodipodi:namedview
     id="namedview1"
     pagecolor="#ffffff"
     bordercolor="#000000"
     borderopacity="0.25"
     inkscape:showpageshadow="2"
     inkscape:pageopacity="0.0"
     inkscape:pagecheckerboard="0"
     inkscape:deskcolor="#d1d1d1"
     inkscape:document-units="mm"
     inkscape:zoom="5.9213249"
     inkscape:cx="71.014513"
     inkscape:cy="110.70158"
     inkscape:window-width="2560"
     inkscape:window-height="1377"
     inkscape:window-x="-8"
     inkscape:window-y="-8"
     inkscape:window-maximized="1"
     inkscape:current-layer="layer1" /><defs
     id="defs1" /><g
     inkscape:label="Capa 1"
     inkscape:groupmode="layer"
     id="layer1"><path
       id="rect1"
       style="fill:#ffcc00;stroke:#000000;stroke-width:0.0366877;stroke-linecap:round;stroke-linejoin:round"
       d="m 5.4309611,24.944252 6.0550439,-6.448555 5.790633,5.585262 -1.438017,2.073621 -1.131281,1.240712 -3.154275,3.134223 -0.438053,-0.338852 z"
       sodipodi:nodetypes="cccccccc" /><path
       id="rect3-5-1-2"
       style="fill:#aa8800;stroke:#000000;stroke-width:0.0366877;stroke-linecap:round;stroke-linejoin:round"
       d="m 9.986793,19.422077 -0.018441,0.122731 0.00442,0.08115 0.00712,0.0448 0.012904,0.04389 0.029155,0.04917 0.04339,0.04011 0.05838,0.03928 0.116122,0.04604 2.807102,0.01811 0.126839,-0.02053 0.06003,-0.03058 0.03361,-0.06492 0.02716,-0.0939 -0.0058,-0.09225 -0.02554,-0.119973 -0.04759,-0.123871 -0.09266,-0.113302 -0.115765,-0.08627 -0.171799,-0.06099 -0.17875,-0.005 -2.419595,0.01566 -0.04614,0.0089 -0.04171,0.02212 -0.04777,0.0422 -0.06383,0.101685 z"
       sodipodi:nodetypes="ccccccccccccccccccccccccccc" /><path
       id="rect4"
       style="mix-blend-mode:darken;fill:#a19d90;fill-opacity:1;stroke:#000000;stroke-width:0.0366877;stroke-linecap:round;stroke-linejoin:round;stroke-opacity:1"
       d="m 17.394222,23.359315 h 19.540276 c 1.952834,0 0.690818,-0.09441 0.690818,0.700156 v 0.800178 c 0,0.387887 2.777672,0.849686 -0.760601,0.859291 l -19.540276,0.05305 c -0.382713,0.001 -0.621036,-0.524449 -0.621036,-0.912335 v -0.800179 c 0,-0.387886 0.308105,-0.700156 0.690819,-0.700156 z"
       sodipodi:nodetypes="sssssssss" /><path
       id="rect3-1"
       style="fill:#806600;stroke:#000000;stroke-width:0.0366877;stroke-linecap:round;stroke-linejoin:round"
       d="m 16.177441,22.882275 0.598564,-0.318269 0.463574,0.309428 0.364122,0.430753 -0.01137,2.263237 -0.265516,0.450125 -0.550829,0.340228 -0.746827,-0.410954 z"
       sodipodi:nodetypes="ccccccccc" /><path
       id="rect3-5-1"
       style="fill:#806600;stroke:#000000;stroke-width:0.0366877;stroke-linecap:round;stroke-linejoin:round"
       d="m 9.9148828,29.489421 -0.018441,-0.12273 0.00766,-0.141581 0.053064,-0.140195 0.2107402,-0.06267 2.807103,-0.01811 0.206492,0.03344 0.04986,0.134505 -0.01456,0.13424 -0.02554,0.119972 -0.04759,0.123873 -0.09266,0.113301 -0.115765,0.08627 -0.171799,0.06099 -0.17875,0.005 -2.472671,-0.016 -0.08255,-0.07291 -0.063827,-0.101686 z"
       sodipodi:nodetypes="ccccccccccccccccccc" /><path
       id="rect2"
       style="fill:#ffcc00;stroke:#000000;stroke-width:0.0366877;stroke-linecap:round;stroke-linejoin:round"
       inkscape:transform-center-x="-0.355184"
       inkscape:transform-center-y="0.4346993"
       d="m 3.6932029,24.606935 0.2170374,-0.533779 0.7230269,-0.717416 0.7689508,-0.494509 0.3525883,-0.052 1.34318,1.716884 c -0.4560294,0.668219 -0.8207943,1.323587 -1.2844677,1.953586 -0.074461,0.101172 -0.3144928,0.0267 -0.3144928,0.0267 L 5.2376583,26.308719 4.5010477,25.784698 3.9419569,25.178829 Z"
       sodipodi:nodetypes="ccccccsccccc" /><path
       id="rect3"
       style="fill:#806600;stroke:#000000;stroke-width:0.0366877;stroke-linecap:round;stroke-linejoin:round"
       d="M 6.1129078,23.073524 6.3450046,22.88362 6.7918359,22.87245 7.1296055,23.084694 6.9955561,26.188655 6.8030067,26.389729 6.3450046,26.445583 6.0458831,26.210997 Z"
       sodipodi:nodetypes="ccccccccc" /><path
       id="rect11"
       style="fill:#ffcc00;stroke:#000000;stroke-width:0.025641;stroke-linecap:round;stroke-linejoin:round"
       d="m 39.365119,25.801537 0.600988,-0.03839 c 0.340468,-0.02175 0.139832,1.325704 0.127705,1.493922 l -0.09527,1.321488 c -0.0062,0.08638 0.05728,0.243209 -0.06016,0.298431 -0.06828,0.03211 0.04635,-0.149548 -0.08341,-0.161283 -0.124192,-0.01123 -0.280587,0.13638 -0.272255,0.08741 0.01363,-0.0801 0.04669,-0.1843 0.03148,-0.172909 l -0.387861,0.290307 -0.30643,-0.253848 -0.285155,0.215718 c -0.115547,0.08741 -0.390373,0.145005 -0.475733,0.131305 -0.20448,-0.03282 -0.144167,-0.316383 -0.144167,-0.435133 v -1.336844 c 0,-0.392346 -0.235813,-1.523095 0.175338,-1.5016 z"
       sodipodi:nodetypes="ssssssssccssssss" /><path
       id="rect12"
       style="fill:#ffcc00;stroke:#000000;stroke-width:0.0255524;stroke-linecap:round;stroke-linejoin:round;stroke-dasharray:none"
       d="m 41.688166,25.85459 1.091408,-0.17998 c 0.32907,-0.05427 0.12985,1.354716 0.12985,1.519116 v 1.210742 c 0,0.07672 -0.300744,-0.07906 -0.401544,-0.0265 -0.08986,0.04687 0.110304,0.299668 -0.0271,0.31201 -0.03874,0.0035 -0.160706,0.01124 -0.201667,0.01124 h -0.65552 c -0.124173,0 0.176265,-0.292714 0.07889,-0.321676 -0.08504,-0.02529 -0.628943,0.373346 -0.67986,0.332408 -0.05473,-0.04401 -0.02935,-0.252598 -0.02935,-0.307482 v -1.210743 c 0,-0.1644 -0.101081,-1.61644 0.178284,-1.519116 z"
       sodipodi:nodetypes="ssssssssssssss" /><path
       id="rect7"
       style="fill:#ffcc00;stroke:#000000;stroke-width:0.0366877;stroke-linecap:round;stroke-linejoin:round"
       d="m 44.493983,25.641626 2.475331,-0.01768 -0.27477,1.466878 -2.026103,0.0044 z"
       sodipodi:nodetypes="ccccc" /><path
       id="rect6"
       style="fill:#ffcc00;stroke:#000000;stroke-width:0.0392937;stroke-linecap:round;stroke-linejoin:round"
       d="m 43.748709,23.06056 h 2.55645 c 0.128605,0 0.392765,-0.0019 0.583334,-0.0014 0.122861,3.59e-4 0.216407,0.0063 0.219064,-6.19e-4 0.0018,-0.0046 -0.0095,0.574848 -0.0095,0.805694 v 1.090668 c 0,0.228298 0.01935,0.843199 0.01698,0.851421 -0.0023,0.0079 -0.266115,0.0068 -0.399178,0.0087 -0.158717,0.0023 -0.335527,-0.0056 -0.454344,-0.0079 l -2.512836,-0.04863 c -0.207251,-0.004 -0.801464,0.0023 -0.797098,-0.01198 0.0029,-0.0095 0.0042,-0.556546 0.0042,-0.791678 v -1.090671 c 0,-0.2587 -0.0041,-0.785192 -0.0041,-0.785192 8.29e-4,0.0046 0.612935,-0.01847 0.796972,-0.01847 z"
       sodipodi:nodetypes="ssssssssssssssss" /><path
       id="rect5"
       style="fill:#aa8800;stroke:#000000;stroke-width:0.0366877;stroke-linecap:round;stroke-linejoin:round"
       d="m 38.249342,22.764728 4.08111,0.03536 c 0.478106,0.0042 0.673372,-0.264003 0.673372,0.859291 v 1.450323 c 0,0.387887 0.16445,1.230605 -0.219782,1.230605 h -4.604483 c -0.43505,0 -0.707882,-0.312656 -0.690818,-0.700156 l 0.08723,-1.980775 c 0.02934,-0.666262 -0.17585,-0.902011 0.673372,-0.894653 z"
       sodipodi:nodetypes="sssssssss" /><path
       id="rect13"
       style="fill:#ffffff;stroke:#000000;stroke-width:0.0537029;stroke-linecap:round;stroke-linejoin:round"
       d="m 8.7870609,25.116588 2.2385181,0.04644 -0.01471,1.340916 C 10.425661,26.628846 9.961428,27.678903 9.8020306,26.78713 9.7436125,26.460302 9.2910792,26.680949 8.9208893,26.733317 L 9.492286,26.1936 9.2183368,25.653195 Z"
       sodipodi:nodetypes="cccscccc" /><path
       id="rect13-7"
       style="fill:#ffffff;stroke:#000000;stroke-width:0.0523587;stroke-linecap:round;stroke-linejoin:round"
       d="m 8.8291142,23.532198 2.2398648,-0.04412 -0.01471,-1.273864 C 10.468704,22.095559 10.004191,21.098009 9.844697,21.94519 9.786249,22.255674 9.3334397,22.046061 8.9630278,21.99631 l 0.5717403,0.512729 -0.2741146,0.513382 z"
       sodipodi:nodetypes="cccscccc" /><path
       id="rect13-2"
       style="fill:#ffffff;stroke:#000000;stroke-width:0.0537029;stroke-linecap:round;stroke-linejoin:round"
       d="m 14.195563,25.083138 -2.238518,0.04644 0.01471,1.340916 c 0.585208,0.124902 1.049441,1.174959 1.208838,0.283186 0.05842,-0.326828 0.510952,-0.106181 0.881142,-0.05381 l -0.571397,-0.539717 0.273949,-0.540405 z"
       sodipodi:nodetypes="cccscccc" /><path
       id="rect13-7-3"
       style="fill:#ffffff;stroke:#000000;stroke-width:0.0523587;stroke-linecap:round;stroke-linejoin:round"
       d="m 14.18734,23.581915 -2.239864,-0.04412 0.01471,-1.273864 c 0.585565,-0.118655 1.050078,-1.116205 1.209572,-0.269024 0.05845,0.310484 0.511257,0.100871 0.881669,0.05112 l -0.57174,0.512729 0.274114,0.513382 z"
       sodipodi:nodetypes="cccscccc" /></g></svg>
